<svg xmlns="http://www.w3.org/2000/svg" xmlns:xlink="http://www.w3.org/1999/xlink" viewBox="0 0 172 82">
    <path fill-rule="evenodd" fill="rgb(35, 27, 15)"
        d="M171.763,38.897 C171.277,38.749 170.794,38.597 170.311,38.447 C170.206,38.415 170.101,38.386 169.995,38.354 C169.472,38.196 168.950,38.029 168.434,37.852 C167.916,37.675 167.388,37.527 166.875,37.334 C166.621,37.237 166.354,37.175 166.092,37.091 C165.767,36.986 165.445,36.870 165.119,36.771 C163.728,36.345 162.356,35.861 160.969,35.424 C160.694,35.337 160.425,35.231 160.150,35.143 C159.889,35.061 159.624,34.989 159.361,34.913 C159.308,34.898 159.252,34.893 159.200,34.873 C158.192,34.479 157.147,34.199 156.122,33.853 C155.914,33.783 155.706,33.713 155.473,33.634 L155.429,31.732 C155.544,31.754 155.667,31.763 155.781,31.802 C156.090,31.907 156.394,32.029 156.705,32.135 C156.937,32.214 157.176,32.275 157.410,32.349 C157.736,32.452 158.060,32.561 158.386,32.667 C159.153,32.915 159.921,33.163 160.688,33.408 C161.092,33.537 161.498,33.662 161.902,33.789 C162.292,33.913 162.682,34.045 163.070,34.178 C163.949,34.479 164.830,34.777 165.719,35.048 C166.175,35.186 166.629,35.339 167.087,35.477 C167.559,35.621 168.027,35.779 168.497,35.937 C168.953,36.090 169.404,36.256 169.861,36.406 C170.042,36.464 170.237,36.481 170.420,36.539 C170.914,36.697 171.404,36.866 171.897,37.033 C171.934,37.045 171.966,37.073 172.009,37.099 C172.009,37.701 172.009,38.304 172.009,38.935 C171.913,38.920 171.835,38.919 171.763,38.897 ZM143.592,31.140 C143.356,31.466 143.065,31.752 142.714,31.978 C142.458,32.142 142.197,32.302 141.919,32.397 C141.394,32.578 140.850,32.636 140.315,32.376 C140.095,32.270 139.926,32.119 139.808,31.909 C139.735,31.778 139.663,31.643 139.614,31.500 C139.454,31.033 139.266,30.572 139.214,30.073 C139.206,29.993 139.169,29.916 139.143,29.838 C139.116,29.760 139.075,29.684 139.063,29.604 C138.952,28.849 138.644,28.151 138.439,27.424 C138.170,26.470 137.847,25.531 137.591,24.574 C137.416,23.924 137.203,23.286 137.010,22.643 C136.927,22.367 136.852,22.089 136.764,21.816 C136.688,21.582 136.599,21.352 136.513,21.123 C136.350,20.688 136.184,20.254 136.020,19.820 C136.040,19.799 136.061,19.777 136.080,19.755 C136.259,19.848 136.439,19.934 136.615,20.033 C136.874,20.180 137.123,20.340 137.394,20.466 C137.567,20.545 137.719,20.661 137.885,20.754 C138.717,21.219 139.543,21.696 140.291,22.300 C140.543,22.502 140.777,22.730 141.070,22.882 C141.128,22.912 141.166,22.979 141.213,23.030 C141.267,23.091 141.309,23.180 141.378,23.211 C141.653,23.336 141.816,23.583 142.011,23.789 C142.478,24.281 142.917,24.801 143.278,25.376 C143.453,25.653 143.622,25.939 143.745,26.242 C143.901,26.622 144.014,27.022 144.137,27.417 C144.169,27.519 144.171,27.633 144.183,27.742 C144.213,28.001 144.243,28.260 144.268,28.519 C144.276,28.615 144.275,28.712 144.265,28.808 C144.225,29.258 144.199,29.711 144.060,30.148 C143.949,30.501 143.806,30.847 143.592,31.140 ZM154.001,20.619 C153.940,20.806 153.919,20.994 153.918,21.188 C153.918,21.324 153.889,21.460 153.875,21.595 C153.866,21.690 153.854,21.786 153.850,21.882 C153.842,22.156 153.865,22.429 153.790,22.702 C153.750,22.841 153.779,23.003 153.779,23.154 L153.779,51.232 C153.779,51.410 153.779,51.589 153.779,51.733 C153.647,51.902 153.544,52.045 153.431,52.180 C153.144,52.522 152.856,52.868 152.590,53.226 C152.235,53.703 151.839,54.147 151.495,54.634 C151.222,55.018 150.895,55.368 150.602,55.742 C150.219,56.232 149.841,56.727 149.453,57.216 C149.234,57.491 149.002,57.755 148.779,58.028 C148.573,58.280 148.377,58.541 148.169,58.793 C148.015,58.980 147.864,59.173 147.718,59.369 C147.620,59.500 147.511,59.622 147.419,59.757 C147.229,60.038 147.009,60.296 146.787,60.553 C146.601,60.767 146.447,61.006 146.269,61.229 C146.137,61.398 145.962,61.521 145.861,61.719 C145.746,61.609 145.826,61.517 145.845,61.436 C145.900,61.205 145.961,60.978 145.797,60.764 C145.646,60.087 145.261,59.517 144.938,58.920 C144.869,58.791 144.749,58.689 144.652,58.575 C144.563,58.470 144.474,58.367 144.384,58.263 C144.295,58.160 144.210,58.053 144.114,57.957 C144.028,57.869 143.934,57.795 143.881,57.674 C143.845,57.591 143.763,57.526 143.695,57.460 C143.559,57.327 143.398,57.222 143.325,57.027 C143.294,56.946 143.193,56.891 143.122,56.827 C143.028,56.745 142.927,56.672 142.891,56.543 C142.883,56.518 142.871,56.486 142.850,56.474 C142.565,56.292 142.440,55.964 142.185,55.757 C142.089,55.679 141.992,55.604 141.956,55.473 C141.943,55.425 141.895,55.383 141.856,55.345 C141.705,55.206 141.533,55.090 141.458,54.883 C141.436,54.825 141.362,54.787 141.311,54.739 C141.176,54.608 141.009,54.506 140.940,54.309 C140.912,54.227 140.813,54.165 140.739,54.106 C140.519,53.935 140.376,53.698 140.212,53.480 C140.184,53.443 140.178,53.388 140.160,53.335 C140.208,53.331 140.236,53.319 140.255,53.329 C140.493,53.438 140.729,53.547 140.963,53.663 C141.659,54.015 142.345,54.389 143.052,54.717 C143.573,54.959 144.121,55.144 144.656,55.355 C144.835,55.425 145.018,55.486 145.193,55.566 C145.676,55.783 146.183,55.883 146.709,55.900 C146.959,55.908 147.451,55.686 147.605,55.461 C147.720,55.293 147.828,55.109 147.886,54.915 C147.972,54.627 148.039,54.325 148.061,54.026 C148.098,53.560 148.102,53.090 148.102,52.621 C148.102,51.933 148.077,51.244 148.077,50.555 C148.074,46.847 148.076,43.139 148.076,39.431 C148.076,39.225 148.066,39.024 148.011,38.820 C147.918,38.470 147.734,38.220 147.436,38.012 C147.093,37.774 146.720,37.628 146.334,37.497 C146.088,37.415 145.843,37.327 145.596,37.247 C144.381,36.852 143.149,36.510 141.943,36.088 C141.088,35.787 140.221,35.512 139.360,35.225 C138.918,35.078 138.477,34.923 138.033,34.781 C137.655,34.660 137.273,34.555 136.892,34.436 C136.580,34.340 136.276,34.205 135.959,34.139 C135.510,34.047 135.110,33.818 134.665,33.722 C134.460,33.678 134.267,33.649 134.064,33.749 C133.865,33.847 133.740,34.013 133.645,34.189 C133.536,34.393 133.459,34.616 133.463,34.859 C133.467,35.093 133.455,35.328 133.445,35.562 C133.434,35.794 133.457,36.031 133.369,36.256 C133.359,36.280 133.360,36.310 133.359,36.337 C133.334,36.748 133.315,37.159 133.282,37.568 C133.264,37.787 133.214,38.003 133.191,38.221 C133.140,38.701 133.100,39.181 133.048,39.660 C133.003,40.084 132.960,40.510 132.889,40.929 C132.776,41.591 132.645,42.249 132.515,42.906 C132.426,43.350 132.355,43.801 132.220,44.231 C132.088,44.649 132.038,45.090 131.849,45.491 C131.831,45.528 131.814,45.565 131.804,45.605 C131.640,46.377 131.295,47.081 130.987,47.797 C130.784,48.274 130.538,48.736 130.267,49.179 C129.922,49.747 129.581,50.323 129.117,50.808 C129.005,51.080 128.711,51.210 128.595,51.485 C128.561,51.565 128.457,51.615 128.388,51.683 C128.251,51.818 128.118,51.956 127.979,52.089 C127.911,52.154 127.833,52.210 127.758,52.269 C127.716,52.302 127.660,52.322 127.627,52.362 C127.413,52.633 127.115,52.805 126.857,53.024 C126.399,53.413 125.905,53.746 125.408,54.078 C125.065,54.306 124.702,54.489 124.318,54.632 C124.093,54.714 123.991,54.709 123.700,54.648 C123.728,54.585 123.749,54.522 123.781,54.465 C124.134,53.850 124.492,53.237 124.844,52.620 C124.905,52.513 124.945,52.394 124.992,52.280 C125.197,51.773 125.408,51.268 125.603,50.757 C125.769,50.324 125.961,49.898 126.026,49.430 C126.053,49.240 126.123,49.061 126.207,48.884 C126.403,48.474 126.530,48.038 126.590,47.586 C126.611,47.422 126.646,47.258 126.686,47.099 C126.926,46.180 127.172,45.262 127.410,44.343 C127.448,44.196 127.466,44.044 127.479,43.894 C127.545,43.152 127.605,42.411 127.671,41.670 C127.687,41.492 127.723,41.317 127.751,41.141 C127.758,41.087 127.768,41.033 127.771,40.978 C127.803,40.429 127.874,39.887 127.954,39.344 C128.016,38.923 128.018,38.493 128.029,38.066 C128.040,37.653 128.017,37.239 128.028,36.826 C128.036,36.497 128.075,36.168 128.095,35.840 C128.103,35.716 128.101,35.591 128.105,35.468 C128.111,35.234 128.079,34.999 128.164,34.772 C128.181,34.723 128.173,34.663 128.173,34.607 C128.158,33.850 128.140,33.092 128.129,32.334 C128.124,31.968 127.922,31.735 127.646,31.529 C127.313,31.278 126.928,31.143 126.546,31.007 C126.027,30.824 125.508,30.647 124.990,30.466 C124.952,30.453 124.910,30.445 124.870,30.433 C124.292,30.265 123.712,30.097 123.134,29.927 C123.082,29.912 123.032,29.884 122.971,29.857 C122.921,29.532 122.938,29.207 122.960,28.847 C123.103,28.876 123.224,28.890 123.336,28.926 C124.133,29.178 124.930,29.438 125.727,29.690 C126.026,29.784 126.329,29.863 126.631,29.951 C126.711,29.974 126.789,29.999 126.866,30.028 C126.969,30.066 127.072,30.105 127.173,30.149 C127.556,30.315 127.894,30.287 128.173,29.887 C128.173,29.247 128.173,28.572 128.173,27.897 C128.173,27.235 128.173,26.574 128.173,25.912 C128.173,25.236 128.173,24.561 128.173,23.886 C128.173,23.210 128.173,22.535 128.173,21.859 C128.173,21.184 128.173,20.509 128.173,19.834 C128.173,19.171 128.173,18.511 128.173,17.848 C128.173,17.173 128.173,16.498 128.173,15.822 C128.173,15.147 128.173,14.472 128.173,13.796 C128.173,13.135 128.173,12.473 128.173,11.811 C128.174,11.141 128.169,10.469 128.177,9.821 C128.288,9.758 128.355,9.776 128.398,9.836 C128.625,10.159 128.922,10.425 129.146,10.753 C129.282,10.953 129.471,11.115 129.629,11.302 C129.795,11.498 129.946,11.707 130.112,11.902 C130.261,12.078 130.401,12.265 130.557,12.431 C130.845,12.737 131.062,13.105 131.383,13.383 C131.567,13.789 132.006,13.946 132.262,14.284 C132.486,14.355 132.612,14.543 132.748,14.712 C132.872,14.863 133.097,14.886 133.187,15.074 C133.580,15.340 133.920,15.689 134.428,15.761 C134.934,15.832 135.374,15.578 135.483,15.084 C135.554,14.763 135.622,14.441 135.610,14.104 C135.597,13.775 135.635,13.445 135.649,13.115 C135.650,13.101 135.657,13.086 135.655,13.074 C135.545,12.643 135.665,12.196 135.557,11.765 C135.540,11.699 135.539,11.629 135.536,11.561 C135.504,10.832 135.473,10.104 135.439,9.376 C135.426,9.116 135.439,8.855 135.360,8.599 C135.321,8.473 135.348,8.325 135.345,8.187 C135.340,7.982 135.355,7.778 135.289,7.575 C135.253,7.461 135.276,7.329 135.273,7.205 C135.267,6.973 135.272,6.746 135.202,6.513 C135.129,6.267 135.190,6.000 135.173,5.709 C135.270,5.734 135.332,5.731 135.367,5.761 C135.849,6.153 136.301,6.582 136.814,6.939 C137.023,7.084 137.192,7.286 137.387,7.455 C137.457,7.517 137.555,7.547 137.623,7.612 C138.216,8.182 138.907,8.615 139.589,9.063 C140.230,9.482 140.862,9.913 141.495,10.343 C141.785,10.541 142.070,10.749 142.338,10.981 C142.738,11.326 142.796,11.821 142.506,12.263 C142.342,12.511 142.093,12.655 141.887,12.848 C141.708,13.014 141.512,13.161 141.313,13.301 C141.115,13.443 140.919,13.584 140.732,13.745 C140.386,14.046 139.997,14.298 139.632,14.578 C139.158,14.940 138.682,15.301 138.221,15.679 C137.954,15.897 137.793,16.177 137.887,16.548 C137.910,16.640 137.915,16.738 137.929,16.835 C138.209,17.090 138.514,17.275 138.880,17.385 C139.574,17.592 140.251,17.862 140.949,18.056 C141.400,18.182 141.838,18.338 142.281,18.478 C142.947,18.687 143.609,18.909 144.275,19.118 C144.574,19.214 144.861,19.349 145.179,19.378 C145.233,19.384 145.285,19.407 145.336,19.427 C145.685,19.556 146.030,19.686 146.396,19.823 C146.443,20.133 146.411,20.458 146.416,20.812 C146.195,20.744 146.014,20.680 145.831,20.635 C145.643,20.590 145.466,20.527 145.289,20.450 C145.038,20.343 144.763,20.294 144.502,20.213 C143.941,20.038 143.380,19.862 142.820,19.680 C142.339,19.522 141.862,19.353 141.379,19.195 C140.872,19.029 140.361,18.872 139.852,18.709 C139.056,18.455 138.261,18.200 137.465,17.944 C136.839,17.742 136.206,17.557 135.591,17.328 C135.303,17.221 135.020,17.132 134.716,17.121 C134.412,17.112 134.164,17.213 133.993,17.494 C133.868,17.700 133.817,17.913 133.773,18.148 C133.679,18.640 133.740,19.138 133.675,19.625 C133.587,20.300 133.620,20.972 133.619,21.646 C133.609,24.348 133.605,27.050 133.601,29.751 C133.601,30.247 133.588,30.744 133.689,31.234 C133.708,31.329 133.729,31.422 133.749,31.517 C133.854,32.045 134.219,32.361 134.654,32.621 C134.963,32.806 135.313,32.888 135.649,33.000 C136.662,33.339 137.679,33.667 138.695,33.996 C139.282,34.186 139.865,34.392 140.460,34.551 C141.391,34.801 142.287,35.154 143.200,35.456 C143.292,35.486 143.382,35.525 143.476,35.544 C144.232,35.702 144.939,36.012 145.672,36.240 C145.970,36.333 146.260,36.464 146.578,36.498 C146.656,36.506 146.731,36.552 146.807,36.578 C146.963,36.630 147.117,36.696 147.277,36.727 C147.634,36.797 147.861,36.685 148.029,36.369 C148.060,36.311 148.069,36.238 148.073,36.171 C148.080,36.048 148.076,35.923 148.076,35.799 C148.076,31.402 148.073,27.005 148.082,22.608 C148.082,22.177 147.978,21.765 147.942,21.342 C147.909,20.974 147.864,20.608 147.823,20.223 C148.002,20.156 148.167,20.152 148.328,20.142 C149.385,20.076 150.442,20.014 151.500,19.949 C152.187,19.906 152.873,19.858 153.559,19.816 C153.750,19.804 153.940,19.770 154.157,19.815 C154.151,19.903 154.159,19.983 154.142,20.058 C154.102,20.246 154.061,20.436 154.001,20.619 ZM124.407,36.568 C124.562,36.695 124.748,36.790 124.891,36.929 C125.155,37.187 125.460,37.393 125.742,37.627 C125.881,37.744 125.875,37.915 125.965,38.080 C125.877,38.113 125.821,38.146 125.758,38.157 C125.361,38.230 124.962,38.201 124.565,38.172 C124.498,38.166 124.432,38.137 124.367,38.114 C124.278,38.082 124.191,38.035 124.099,38.010 C123.318,37.799 122.558,37.522 121.789,37.270 C121.231,37.087 120.662,36.937 120.101,36.757 C119.500,36.563 118.904,36.346 118.304,36.147 C117.822,35.988 117.337,35.840 116.854,35.686 C116.527,35.582 116.201,35.476 115.874,35.371 C114.870,35.049 113.867,34.723 112.860,34.408 C112.129,34.178 111.391,33.971 110.660,33.740 C110.149,33.578 109.648,33.386 109.139,33.219 C108.435,32.988 107.729,32.763 107.021,32.543 C106.647,32.425 106.247,32.586 106.006,32.899 C105.837,33.120 105.799,33.372 105.762,33.631 C105.753,33.697 105.760,33.768 105.759,33.836 C105.746,34.469 105.735,35.103 105.720,35.736 C105.718,35.832 105.701,35.928 105.695,36.023 C105.682,36.244 105.662,36.462 105.659,36.682 C105.656,36.915 105.574,37.100 105.571,37.369 C105.536,37.438 105.545,37.531 105.540,37.613 C105.521,38.177 105.526,38.745 105.473,39.306 C105.438,39.685 105.354,40.076 105.338,40.444 C105.316,40.540 105.304,40.636 105.317,40.730 C105.349,40.989 105.396,41.245 105.438,41.504 C105.470,41.704 105.570,41.857 105.735,41.979 C105.867,42.075 105.978,42.198 106.103,42.302 C106.362,42.517 106.683,42.612 106.993,42.713 C107.580,42.904 108.155,43.126 108.755,43.282 C109.338,43.433 109.902,43.654 110.475,43.840 C111.362,44.127 112.275,44.377 113.176,44.666 C113.193,44.948 113.180,45.285 113.193,45.758 C113.105,45.747 113.058,45.754 112.986,45.731 C111.283,45.191 109.574,44.659 107.877,44.098 C107.333,43.918 106.781,43.761 106.250,43.538 C105.834,43.364 105.385,43.539 105.161,43.939 C105.068,44.105 104.997,44.292 104.958,44.478 C104.852,45.003 104.706,45.522 104.694,46.064 C104.692,46.131 104.670,46.198 104.656,46.265 C104.533,46.885 104.386,47.501 104.277,48.124 C104.176,48.704 104.012,49.272 103.869,49.843 C103.762,50.267 103.646,50.688 103.532,51.110 C103.499,51.228 103.457,51.345 103.421,51.463 C103.308,51.831 103.196,52.198 103.081,52.565 C103.052,52.655 103.015,52.745 102.979,52.832 C102.951,52.895 102.908,52.952 102.889,53.018 C102.628,53.931 102.210,54.781 101.824,55.644 C101.633,56.070 101.404,56.475 101.185,56.886 C100.749,57.709 100.227,58.474 99.696,59.232 C99.471,59.553 99.240,59.871 98.958,60.146 C98.830,60.270 98.786,60.454 98.632,60.562 C98.487,60.663 98.352,60.780 98.286,60.961 C98.266,61.018 98.190,61.056 98.142,61.103 C98.015,61.229 97.887,61.355 97.762,61.482 C97.630,61.619 97.529,61.792 97.330,61.851 C97.294,61.862 97.265,61.901 97.237,61.931 C96.769,62.446 96.194,62.834 95.649,63.256 C95.187,63.613 94.690,63.927 94.191,64.232 C93.948,64.380 93.716,64.547 93.446,64.655 C93.208,64.749 92.996,64.911 92.767,65.034 C92.441,65.208 92.110,65.372 91.780,65.542 C91.598,65.637 91.413,65.730 91.231,65.828 C90.853,66.032 90.454,66.181 90.027,66.240 C89.870,66.262 89.706,66.304 89.568,66.228 C89.519,66.120 89.579,66.076 89.628,66.030 C89.794,65.870 89.982,65.736 90.088,65.512 C90.143,65.396 90.281,65.321 90.380,65.225 C90.506,65.102 90.647,64.1000 90.725,64.823 C90.775,64.707 90.907,64.623 91.010,64.532 C91.144,64.413 91.256,64.282 91.353,64.128 C91.522,63.866 91.735,63.633 91.901,63.369 C92.115,63.026 92.338,62.688 92.560,62.349 C92.708,62.122 92.830,61.879 92.967,61.645 C93.132,61.364 93.273,61.072 93.406,60.776 C93.501,60.562 93.614,60.356 93.718,60.146 C93.907,59.769 94.128,59.405 94.281,59.009 C94.626,58.118 95.074,57.271 95.364,56.356 C95.529,55.834 95.751,55.330 95.946,54.817 C96.035,54.588 96.129,54.360 96.206,54.128 C96.497,53.256 96.787,52.383 97.065,51.507 C97.160,51.208 97.188,50.885 97.297,50.593 C97.534,49.956 97.627,49.288 97.780,48.634 C97.933,47.977 98.071,47.316 98.216,46.657 C98.230,46.590 98.254,46.523 98.257,46.456 C98.302,45.614 98.507,44.794 98.614,43.962 C98.676,43.485 98.729,43.009 98.788,42.532 C98.843,42.058 98.926,41.587 98.991,41.114 C99.009,40.977 99.003,40.838 99.012,40.701 L99.425,32.188 C99.421,31.831 99.369,31.476 99.337,31.080 C99.094,30.990 98.890,30.909 98.685,30.838 C97.917,30.574 97.149,30.309 96.380,30.055 C96.212,29.998 96.022,29.999 95.859,29.934 C95.132,29.647 94.375,29.457 93.643,29.186 C93.605,29.173 93.570,29.143 93.530,29.137 C93.063,29.072 92.649,28.841 92.203,28.715 C91.754,28.591 91.320,28.414 90.876,28.273 C90.433,28.133 89.984,28.010 89.528,27.875 C89.497,27.777 89.450,27.688 89.442,27.596 C89.394,27.047 89.424,26.498 89.435,25.948 C89.617,25.878 89.753,25.970 89.890,26.012 C91.585,26.536 93.279,27.064 94.971,27.592 C97.243,28.299 99.515,29.003 101.786,29.716 C102.215,29.851 102.634,30.017 103.058,30.170 C103.482,30.324 103.921,30.338 104.361,30.286 C104.544,30.265 104.771,29.983 104.761,29.770 C104.745,29.455 104.722,29.136 104.657,28.828 C104.577,28.438 104.467,28.055 104.421,27.658 C104.414,27.589 104.398,27.521 104.375,27.456 C104.171,26.900 104.069,26.316 103.926,25.744 C103.666,24.702 103.367,23.673 103.092,22.637 C102.969,22.174 102.829,21.715 102.716,21.249 C102.611,20.811 102.453,20.386 102.330,19.951 C102.180,19.424 102.046,18.894 101.901,18.366 C101.868,18.247 101.818,18.133 101.784,18.015 C101.761,17.940 101.754,17.862 101.733,17.746 C101.833,17.779 101.907,17.783 101.954,17.820 C102.384,18.157 102.884,18.388 103.303,18.747 C103.525,18.938 103.811,19.055 104.067,19.206 C104.548,19.489 105.023,19.778 105.468,20.118 C105.714,20.308 105.973,20.485 106.224,20.671 C106.419,20.816 106.589,20.997 106.795,21.121 C107.001,21.246 107.152,21.416 107.313,21.583 C107.416,21.689 107.558,21.756 107.666,21.854 C107.779,21.956 107.872,22.075 107.975,22.187 C108.495,22.760 109.008,23.335 109.400,24.014 C109.599,24.362 109.770,24.721 109.890,25.092 C110.112,25.774 110.216,26.483 110.140,27.209 C110.071,27.874 109.888,28.506 109.617,29.113 C109.530,29.310 109.389,29.484 109.260,29.659 C109.050,29.945 108.748,30.144 108.517,30.410 C108.287,30.495 108.155,30.696 107.994,30.860 C107.856,30.998 107.792,31.149 107.829,31.343 C107.847,31.437 107.856,31.534 107.866,31.610 C108.023,31.830 108.234,31.924 108.462,31.989 C108.962,32.131 109.443,32.332 109.953,32.454 C110.390,32.560 110.806,32.752 111.240,32.880 C112.473,33.245 113.703,33.627 114.913,34.069 C114.951,34.083 114.991,34.092 115.031,34.100 C115.599,34.214 116.129,34.452 116.680,34.617 C117.125,34.749 117.550,34.941 118.010,35.030 C118.237,35.073 118.450,35.182 118.670,35.258 C118.901,35.338 119.134,35.415 119.375,35.497 C119.686,35.227 119.816,34.851 120.059,34.557 C120.291,34.274 120.475,33.951 120.681,33.644 C120.924,33.661 121.059,33.860 121.226,33.984 C121.618,34.273 121.964,34.624 122.357,34.908 C122.786,35.216 123.160,35.587 123.595,35.887 C123.883,36.088 124.132,36.344 124.407,36.568 ZM87.210,15.887 C87.111,17.926 87.125,19.967 87.157,22.007 C87.170,22.889 87.182,23.771 87.182,24.653 C87.185,31.200 87.183,37.747 87.183,44.295 C87.183,44.447 87.183,44.598 87.183,44.747 C86.715,45.455 86.170,46.043 85.677,46.673 C85.194,47.291 84.710,47.911 84.208,48.516 C83.699,49.130 83.204,49.758 82.714,50.388 C82.232,51.007 81.744,51.618 81.258,52.232 C80.765,52.853 80.301,53.497 79.749,54.111 C79.687,53.937 79.770,53.813 79.795,53.688 C79.830,53.507 79.868,53.335 79.739,53.176 C79.675,52.805 79.472,52.488 79.341,52.143 C79.222,51.833 79.014,51.650 78.720,51.536 C78.707,51.531 78.695,51.528 78.681,51.523 C78.172,51.364 77.662,51.208 77.153,51.046 C76.853,50.951 76.557,50.844 76.257,50.746 C75.190,50.398 74.123,50.050 73.054,49.704 C72.510,49.527 71.965,49.352 71.423,49.178 C71.361,48.740 71.465,47.799 71.371,47.256 C71.530,47.211 71.666,47.301 71.804,47.346 C73.362,47.847 74.918,48.355 76.474,48.860 C77.835,49.303 79.196,49.744 80.556,50.185 C80.686,50.226 80.817,50.259 80.963,50.301 C81.036,50.140 81.007,49.988 81.007,49.844 L80.949,33.965 C80.947,33.680 80.840,33.463 80.698,33.244 C80.663,33.190 80.604,33.141 80.546,33.113 C79.975,32.845 79.401,32.585 78.796,32.401 C76.786,31.787 74.796,31.105 72.798,30.452 C71.939,30.171 71.073,29.905 70.211,29.631 C69.572,29.426 68.934,29.216 68.295,29.011 C67.930,28.895 67.564,28.784 67.199,28.667 C67.109,28.638 67.016,28.608 66.932,28.568 C66.604,28.408 66.247,28.362 65.892,28.335 C65.562,28.310 65.122,28.642 65.004,28.959 C64.916,29.194 64.890,29.436 64.890,29.686 C64.893,33.642 64.892,37.599 64.892,41.554 C64.892,43.099 64.892,44.643 64.893,46.186 C64.893,46.393 64.903,46.600 64.900,46.806 C64.890,47.380 65.159,47.796 65.622,48.106 C65.747,48.191 65.868,48.282 65.995,48.365 C66.063,48.409 66.136,48.452 66.213,48.478 C66.770,48.666 67.327,48.854 67.887,49.034 C68.450,49.214 69.017,49.384 69.582,49.559 C69.609,49.566 69.633,49.579 69.679,49.599 C69.610,49.985 69.725,50.205 69.706,50.544 C69.608,50.534 69.527,50.539 69.454,50.517 C68.824,50.331 68.195,50.132 67.561,49.953 C67.154,49.838 66.737,49.754 66.327,49.648 C66.114,49.594 65.902,49.531 65.696,49.457 C65.380,49.340 65.102,49.398 64.844,49.600 C64.702,49.710 64.556,49.816 64.428,49.939 C64.166,50.194 63.914,50.465 63.595,50.652 C62.934,51.339 62.133,51.861 61.432,52.502 C61.159,52.753 60.858,52.976 60.569,53.209 C60.398,53.346 60.212,53.465 60.083,53.652 C59.980,53.800 59.800,53.849 59.673,53.983 C59.461,54.208 59.198,54.383 58.974,54.567 C58.849,54.534 58.861,54.458 58.860,54.393 C58.856,54.269 58.857,54.145 58.857,54.021 C58.857,36.515 58.857,19.009 58.857,1.502 C58.857,1.326 58.861,1.150 58.863,0.989 C58.959,0.944 58.985,0.990 59.023,1.033 C59.206,1.248 59.397,1.459 59.580,1.676 C59.667,1.780 59.734,1.900 59.824,1.999 C59.907,2.089 59.995,2.165 60.061,2.276 C60.173,2.458 60.352,2.591 60.475,2.776 C60.608,2.977 60.835,3.118 60.952,3.324 C61.077,3.542 61.288,3.674 61.406,3.898 C61.498,4.070 61.681,4.188 61.795,4.364 C61.927,4.566 62.136,4.715 62.279,4.910 C62.393,5.064 62.541,5.194 62.639,5.348 C62.808,5.608 63.056,5.782 63.244,6.017 C63.351,6.150 63.525,6.228 63.654,6.347 C63.784,6.468 63.873,6.656 64.022,6.733 C64.321,6.889 64.482,7.197 64.779,7.353 C65.210,7.580 65.586,7.908 66.064,8.050 C66.222,8.096 66.372,8.171 66.527,8.224 C66.890,8.348 67.248,8.495 67.620,8.583 C68.318,8.749 68.974,9.038 69.659,9.243 C69.949,9.330 70.230,9.446 70.519,9.536 C70.976,9.679 71.437,9.811 71.898,9.947 C71.977,9.970 72.057,9.986 72.136,10.012 C73.035,10.313 73.936,10.614 74.834,10.918 C75.238,11.056 75.639,11.200 76.042,11.339 C76.184,11.389 76.327,11.443 76.473,11.477 C77.224,11.653 77.944,11.927 78.671,12.172 C79.333,12.395 79.996,12.607 80.657,12.835 C80.851,12.903 81.024,12.903 81.214,12.832 C81.511,12.721 81.822,12.672 82.140,12.671 C82.262,12.670 82.383,12.640 82.505,12.623 C82.585,12.613 82.667,12.598 82.749,12.593 C83.133,12.570 83.518,12.547 83.903,12.527 C84.975,12.471 86.047,12.415 87.118,12.361 C87.253,12.355 87.393,12.314 87.542,12.406 C87.533,12.520 87.531,12.642 87.511,12.762 C87.345,13.797 87.261,14.842 87.210,15.887 ZM81.014,15.439 C81.016,15.050 80.963,14.671 80.885,14.295 C80.831,14.028 80.662,13.818 80.440,13.680 C80.255,13.567 80.041,13.497 79.834,13.427 C78.899,13.113 77.963,12.796 77.022,12.496 C75.531,12.020 74.048,11.515 72.552,11.054 C71.374,10.692 70.209,10.290 69.040,9.905 C68.740,9.806 68.445,9.695 68.133,9.636 C67.972,9.606 67.820,9.534 67.664,9.480 C67.353,9.373 67.045,9.248 66.727,9.164 C66.462,9.094 66.187,9.039 65.915,9.039 C65.382,9.037 65.037,9.342 64.965,9.822 C64.919,10.134 64.896,10.453 64.896,10.768 C64.890,14.571 64.894,18.375 64.892,22.179 C64.890,22.703 64.875,23.226 64.857,23.750 C64.835,24.356 64.840,24.962 64.903,25.566 C64.936,25.869 64.992,26.166 65.113,26.447 C65.156,26.546 65.203,26.670 65.287,26.722 C65.564,26.895 65.790,27.136 66.103,27.264 C66.445,27.404 66.797,27.510 67.147,27.627 C67.628,27.786 68.120,27.913 68.603,28.067 C69.035,28.206 69.460,28.368 69.890,28.511 C70.763,28.802 71.635,29.095 72.513,29.373 C73.361,29.643 74.214,29.895 75.066,30.157 C75.210,30.201 75.353,30.251 75.496,30.298 C76.594,30.656 77.697,31.001 78.789,31.379 C79.282,31.550 79.810,31.602 80.282,31.837 C80.295,31.843 80.308,31.844 80.322,31.846 C80.743,31.932 80.982,31.750 81.011,31.316 C81.021,31.192 81.017,31.068 81.016,30.944 C81.014,30.599 81.010,30.255 81.010,29.910 L81.014,15.439 ZM52.696,21.054 C52.679,21.909 52.680,22.763 52.680,23.618 C52.680,33.527 52.680,43.438 52.680,53.347 C52.680,53.471 52.674,53.596 52.683,53.719 C52.699,53.970 52.610,54.168 52.430,54.343 C52.285,54.484 52.161,54.647 52.036,54.806 C51.724,55.197 51.415,55.589 51.109,55.983 C50.876,56.282 50.662,56.595 50.419,56.884 C50.155,57.195 49.902,57.512 49.657,57.836 C49.375,58.202 49.066,58.547 48.788,58.914 C48.429,59.388 48.028,59.829 47.692,60.322 C47.502,60.601 47.270,60.851 47.055,61.113 C46.841,61.374 46.600,61.616 46.421,61.899 C46.312,62.069 46.153,62.172 46.035,62.319 C45.848,62.554 45.672,62.799 45.489,63.037 C45.468,63.066 45.430,63.082 45.367,63.129 C45.383,62.974 45.370,62.846 45.410,62.736 C45.468,62.582 45.452,62.438 45.416,62.290 C45.336,61.955 45.203,61.641 45.063,61.325 C44.920,61.000 44.706,60.754 44.441,60.530 C44.150,60.283 43.860,60.035 43.613,59.737 C43.504,59.604 43.339,59.518 43.205,59.402 C43.101,59.313 43.006,59.214 42.911,59.115 C42.827,59.027 42.762,58.922 42.630,58.884 C42.570,58.866 42.514,58.808 42.474,58.756 C42.215,58.432 41.893,58.175 41.585,57.902 C41.442,57.775 41.312,57.633 41.173,57.501 C41.125,57.454 41.068,57.414 41.013,57.375 C40.979,57.352 40.929,57.345 40.906,57.316 C40.639,56.961 40.267,56.711 39.971,56.385 C39.935,56.347 39.920,56.294 39.873,56.211 C39.955,56.211 40.009,56.197 40.051,56.213 C40.540,56.394 41.027,56.578 41.515,56.763 C42.064,56.972 42.613,57.186 43.163,57.391 C43.728,57.602 44.293,57.814 44.863,58.010 C45.123,58.099 45.393,58.155 45.660,58.217 C46.269,58.358 46.786,58.013 47.044,57.499 C47.132,57.326 47.182,57.140 47.189,56.943 C47.203,56.544 47.236,56.145 47.236,55.745 C47.239,52.479 47.239,49.213 47.239,45.947 C47.239,45.629 47.178,45.322 47.106,45.015 C47.080,44.909 47.065,44.799 47.042,44.667 C46.816,44.498 46.601,44.285 46.307,44.189 C46.152,44.139 45.991,44.103 45.836,44.052 C44.743,43.693 43.651,43.332 42.557,42.974 C42.480,42.949 42.395,42.949 42.315,42.931 C42.168,42.897 42.012,42.882 41.879,42.816 C41.550,42.652 41.195,42.596 40.843,42.571 C40.537,42.548 40.249,42.666 40.035,42.906 C39.841,43.125 39.700,43.370 39.650,43.668 C39.565,44.168 39.474,44.667 39.368,45.163 C39.277,45.592 39.173,46.017 39.056,46.440 C38.883,47.074 38.668,47.696 38.474,48.324 C38.123,49.460 37.571,50.502 37.039,51.555 C36.849,51.930 36.636,52.298 36.398,52.644 C36.083,53.102 35.713,53.522 35.405,53.985 C35.238,54.236 34.967,54.395 34.846,54.682 C34.810,54.763 34.711,54.816 34.643,54.884 C34.371,55.156 34.097,55.428 33.827,55.703 C33.740,55.790 33.668,55.892 33.540,55.929 C33.492,55.943 33.446,55.986 33.411,56.027 C33.051,56.462 32.568,56.749 32.131,57.091 C31.723,57.409 31.297,57.708 30.856,57.978 C30.301,58.320 29.735,58.646 29.143,58.928 C28.876,59.054 28.615,59.149 28.327,59.181 C28.304,59.184 28.277,59.166 28.231,59.152 C28.281,58.963 28.392,58.814 28.517,58.669 C28.588,58.588 28.660,58.506 28.725,58.420 C29.083,57.938 29.401,57.427 29.752,56.941 C30.238,56.270 30.590,55.531 30.937,54.787 C31.122,54.391 31.281,53.981 31.462,53.582 C31.668,53.131 31.775,52.646 31.953,52.187 C32.191,51.573 32.365,50.938 32.559,50.311 C32.653,50.010 32.722,49.704 32.793,49.397 C32.845,49.171 32.932,48.957 32.971,48.724 C33.071,48.142 33.217,47.570 33.340,46.992 C33.436,46.549 33.507,46.101 33.572,45.651 C33.657,45.054 33.831,44.469 33.964,43.878 C34.001,43.718 34.037,43.556 34.059,43.392 C34.151,42.726 34.262,42.063 34.393,41.403 C34.446,41.135 34.472,40.862 34.506,40.590 C34.569,40.061 34.638,39.530 34.690,38.1000 C34.728,38.631 34.712,38.257 34.775,37.894 C34.844,37.515 34.788,37.125 34.899,36.753 C34.907,36.727 34.906,36.698 34.907,36.670 C34.933,36.108 34.974,35.546 34.984,34.983 L35.098,9.851 C35.098,9.689 35.100,9.527 35.101,9.371 C35.258,9.326 35.298,9.435 35.356,9.500 C35.986,10.193 36.613,10.889 37.239,11.585 C38.116,12.557 38.994,13.528 39.867,14.502 C40.210,14.884 40.636,15.168 41.031,15.488 C41.103,15.545 41.203,15.571 41.294,15.601 C43.158,16.225 45.023,16.850 46.890,17.468 C47.032,17.515 47.185,17.549 47.333,17.550 C47.731,17.552 48.130,17.541 48.528,17.518 C48.954,17.493 49.378,17.437 49.804,17.414 C50.779,17.361 51.756,17.320 52.731,17.276 C52.811,17.274 52.890,17.287 52.993,17.294 C52.973,17.436 52.959,17.556 52.942,17.676 C52.785,18.797 52.718,19.924 52.696,21.054 ZM47.239,19.654 C47.239,19.352 47.253,19.051 47.065,18.785 C47.018,18.719 47.002,18.634 46.979,18.573 C46.716,18.419 46.504,18.293 46.290,18.170 C46.184,18.109 46.079,18.035 45.965,17.997 C45.158,17.725 44.355,17.448 43.540,17.200 C42.966,17.026 42.392,16.841 41.774,16.880 C41.441,16.901 41.157,16.986 40.970,17.282 C40.847,17.481 40.744,17.691 40.735,17.932 C40.724,18.234 40.719,18.537 40.710,18.839 C40.704,19.046 40.725,19.258 40.683,19.456 C40.608,19.797 40.596,20.139 40.598,20.482 C40.601,21.721 40.608,22.961 40.612,24.200 C40.615,24.929 40.613,25.660 40.614,26.390 C40.615,26.806 40.677,27.210 40.794,27.610 C40.853,27.812 40.935,27.973 41.090,28.130 C41.296,28.339 41.491,28.533 41.776,28.627 C41.879,28.660 41.981,28.714 42.065,28.782 C42.264,28.941 42.494,29.003 42.732,29.074 C43.373,29.269 44.006,29.492 44.643,29.704 C45.239,29.902 45.834,30.101 46.430,30.300 C46.482,30.317 46.535,30.335 46.588,30.348 C46.916,30.426 47.168,30.270 47.221,29.939 C47.245,29.791 47.239,29.637 47.239,29.486 C47.239,26.209 47.239,22.932 47.239,19.654 ZM46.997,31.621 C46.979,31.572 46.944,31.522 46.903,31.488 C46.674,31.296 46.452,31.100 46.137,31.034 C45.519,30.901 44.920,30.699 44.323,30.488 C43.803,30.305 43.277,30.145 42.762,29.952 C42.353,29.797 41.932,29.796 41.508,29.808 C41.282,29.814 41.091,29.911 40.952,30.105 C40.787,30.334 40.678,30.578 40.677,30.866 C40.677,31.017 40.665,31.168 40.656,31.319 C40.637,31.662 40.607,32.006 40.600,32.348 L40.375,37.279 C40.331,37.939 40.282,38.598 40.245,39.258 C40.227,39.588 40.217,39.919 40.228,40.249 C40.245,40.721 40.457,41.096 40.866,41.343 C41.076,41.471 41.289,41.615 41.520,41.690 C41.857,41.800 42.185,41.930 42.517,42.056 C42.720,42.133 42.918,42.222 43.124,42.290 C43.580,42.440 44.040,42.577 44.496,42.726 C45.174,42.948 45.851,43.177 46.529,43.398 C46.821,43.494 46.980,43.412 47.132,43.137 C47.239,42.944 47.239,42.741 47.239,42.534 C47.239,40.895 47.239,39.256 47.239,37.616 C47.239,35.963 47.232,34.309 47.244,32.656 C47.247,32.283 47.108,31.958 46.997,31.621 ZM31.525,12.844 C31.524,23.303 31.524,33.764 31.524,44.224 C31.524,44.706 31.524,45.189 31.524,45.672 C31.524,45.779 31.524,45.888 31.524,46.061 C31.070,45.965 30.693,45.837 30.317,45.716 C29.614,45.491 28.916,45.251 28.215,45.017 C28.151,44.996 28.083,44.983 28.021,44.955 C27.718,44.821 27.403,44.729 27.078,44.667 C26.971,44.647 26.866,44.608 26.762,44.573 C26.138,44.358 25.515,44.142 24.890,43.928 C24.462,43.780 24.031,43.636 23.600,43.495 C23.444,43.442 23.285,43.398 23.125,43.356 C22.888,43.293 22.637,43.269 22.425,43.124 C22.393,43.101 22.350,43.092 22.311,43.082 C21.294,42.832 20.324,42.436 19.333,42.115 C19.203,42.073 19.067,42.041 18.935,42.009 C18.788,41.973 18.637,41.952 18.494,41.904 C16.679,41.305 14.865,40.702 13.052,40.097 C12.530,39.923 12.014,39.732 11.491,39.562 C11.062,39.422 10.627,39.300 10.194,39.172 C9.772,39.049 9.359,38.907 8.939,38.780 C8.535,38.660 8.134,38.516 7.732,38.381 C6.927,38.112 6.129,37.819 5.314,37.584 C4.603,37.381 3.914,37.111 3.197,36.926 C2.906,36.851 2.624,36.740 2.340,36.645 C1.599,36.396 0.858,36.147 0.082,35.886 C0.058,35.791 0.006,35.674 0.004,35.555 C-0.002,35.073 0.005,34.591 0.010,34.109 C0.010,34.085 0.033,34.061 0.046,34.035 C0.219,33.976 0.372,34.059 0.520,34.118 C0.779,34.220 1.038,34.307 1.312,34.346 C1.339,34.350 1.368,34.350 1.392,34.362 C1.748,34.547 2.134,34.633 2.513,34.752 C3.127,34.944 3.734,35.157 4.346,35.354 C5.101,35.599 5.865,35.817 6.611,36.084 C7.244,36.311 7.899,36.458 8.528,36.696 C9.171,36.938 9.832,37.133 10.485,37.348 C11.125,37.559 11.765,37.768 12.405,37.978 C12.431,37.987 12.459,37.993 12.484,38.002 C13.106,38.217 13.727,38.439 14.364,38.607 C14.708,38.697 15.043,38.824 15.384,38.933 C15.917,39.105 16.450,39.277 16.985,39.446 C17.008,39.454 17.038,39.442 17.083,39.438 C17.094,39.377 17.112,39.312 17.114,39.247 C17.119,39.095 17.116,38.943 17.116,38.793 C17.116,27.574 17.116,16.355 17.117,5.138 C17.117,4.976 17.124,4.814 17.126,4.664 C17.264,4.608 17.297,4.708 17.345,4.762 C17.956,5.454 18.565,6.147 19.173,6.841 C20.281,8.103 21.390,9.365 22.499,10.629 C22.625,10.773 22.749,10.918 22.888,11.079 C22.757,11.362 22.637,11.638 22.503,11.908 C22.409,12.096 22.364,12.287 22.364,12.501 C22.369,16.401 22.362,20.301 22.373,24.201 C22.375,24.649 22.408,25.107 22.610,25.527 C22.669,25.651 22.742,25.759 22.846,25.856 C23.017,26.015 23.162,26.199 23.350,26.409 C23.954,26.598 24.610,26.792 25.257,27.012 C25.504,27.095 25.739,27.080 25.993,27.062 C26.186,26.740 26.219,26.381 26.250,26.028 L26.273,13.956 C26.273,13.874 26.267,13.791 26.273,13.708 C26.296,13.324 25.905,12.842 25.584,12.719 C25.242,12.588 24.912,12.420 24.562,12.261 C24.556,12.102 24.548,11.953 24.548,11.804 C24.548,11.670 24.526,11.532 24.584,11.398 C25.098,11.517 25.543,11.760 26.010,11.945 C26.354,12.081 26.690,12.147 27.052,12.050 C27.158,12.022 27.269,12.015 27.378,12.011 C27.584,12.003 27.785,11.978 27.989,11.952 C28.613,11.873 29.234,11.770 29.865,11.747 C29.961,11.743 30.054,11.714 30.150,11.702 C30.544,11.650 30.940,11.598 31.335,11.552 C31.400,11.544 31.467,11.561 31.542,11.568 C31.618,11.780 31.613,11.993 31.571,12.187 C31.523,12.408 31.526,12.625 31.525,12.844 ZM26.270,29.670 C26.270,29.285 26.176,28.915 26.061,28.547 C25.959,28.220 25.663,28.121 25.438,27.938 C25.197,27.932 25.003,27.781 24.779,27.714 C24.400,27.601 24.027,27.448 23.642,27.368 C23.281,27.293 22.938,27.400 22.649,27.644 C22.618,27.670 22.587,27.705 22.576,27.742 C22.525,27.927 22.474,28.111 22.438,28.299 C22.416,28.419 22.432,28.547 22.411,28.669 L22.473,40.546 C22.507,40.781 22.584,41.007 22.789,41.146 C23.071,41.336 23.348,41.527 23.688,41.619 C24.123,41.739 24.559,41.872 24.969,42.055 C25.304,42.206 25.626,42.217 25.963,42.165 C26.207,41.878 26.274,41.550 26.273,41.196 C26.272,37.354 26.274,33.512 26.270,29.670 ZM109.831,69.385 C109.730,69.225 109.657,69.048 109.555,68.889 C109.468,68.752 109.363,68.626 109.262,68.500 C109.186,68.403 109.101,68.311 109.023,68.218 C108.944,68.125 108.871,68.026 108.784,67.939 C108.658,67.815 108.506,67.719 108.442,67.536 C108.418,67.465 108.334,67.416 108.275,67.358 C108.137,67.227 107.973,67.126 107.904,66.926 C107.875,66.846 107.772,66.791 107.703,66.724 C107.583,66.613 107.441,66.524 107.389,66.352 C107.370,66.293 107.304,66.247 107.253,66.200 C107.094,66.051 106.913,65.928 106.825,65.710 C106.793,65.629 106.684,65.581 106.618,65.511 C106.545,65.432 106.482,65.345 106.416,65.260 C106.391,65.228 106.381,65.177 106.348,65.158 C106.086,64.994 105.940,64.721 105.739,64.502 C105.461,64.200 105.176,63.903 104.904,63.596 C104.797,63.476 104.698,63.345 104.674,63.153 C104.823,63.156 104.913,63.253 105.023,63.291 C105.140,63.332 105.260,63.370 105.367,63.432 C105.998,63.793 106.661,64.091 107.306,64.424 C107.730,64.643 108.154,64.863 108.583,65.075 C108.767,65.165 108.963,65.232 109.153,65.312 C109.795,65.586 110.409,65.924 111.091,66.101 C111.941,66.320 112.515,66.089 112.977,65.486 C113.232,65.152 113.373,64.765 113.464,64.366 C113.588,63.819 113.685,63.264 113.777,62.711 C113.822,62.442 113.799,62.159 113.861,61.896 C113.971,61.424 113.923,60.939 114.029,60.466 C114.103,60.135 114.090,59.786 114.118,59.445 C114.154,58.995 114.190,58.545 114.232,58.095 C114.257,57.822 114.243,57.549 114.292,57.274 C114.357,56.898 114.348,56.510 114.378,56.127 C114.392,55.964 114.432,55.804 114.443,55.641 C114.473,55.203 114.497,54.765 114.515,54.327 C114.540,53.723 114.511,53.113 114.588,52.516 C114.680,51.802 114.648,51.085 114.722,50.376 C114.805,49.565 114.772,48.755 114.797,47.946 C114.822,47.148 114.827,46.348 114.843,45.549 C114.846,45.413 114.855,45.278 114.865,45.084 C117.008,44.976 119.108,44.870 121.209,44.766 C121.260,44.764 121.313,44.782 121.393,44.796 C121.380,44.928 121.374,45.048 121.356,45.167 C121.287,45.600 121.215,46.033 121.145,46.466 C121.078,46.884 121.010,47.302 120.953,47.722 C120.930,47.898 120.926,48.079 120.921,48.257 L120.584,57.659 C120.583,57.729 120.592,57.802 120.570,57.865 C120.409,58.344 120.467,58.847 120.429,59.337 C120.407,59.610 120.338,59.825 120.130,60.025 C119.909,60.239 119.749,60.517 119.556,60.762 C119.329,61.048 119.092,61.327 118.863,61.612 C118.584,61.960 118.309,62.311 118.034,62.662 C117.819,62.937 117.608,63.218 117.390,63.492 C117.117,63.832 116.818,64.150 116.553,64.499 C115.928,65.321 115.279,66.125 114.643,66.938 C114.330,67.339 114.023,67.748 113.709,68.148 C113.481,68.437 113.244,68.721 113.010,69.006 C112.813,69.247 112.610,69.484 112.419,69.729 C112.202,70.006 112.006,70.299 111.782,70.568 C111.398,71.023 110.995,71.461 110.637,71.954 C110.538,71.876 110.576,71.795 110.597,71.728 C110.678,71.471 110.664,71.235 110.579,70.969 C110.396,70.405 110.142,69.884 109.831,69.385 ZM127.804,81.870 L50.582,81.870 L50.582,75.663 L127.804,75.663 L127.804,81.870 ZM65.834,79.166 C65.462,79.178 65.206,79.184 65.067,79.184 C64.900,79.184 64.688,79.178 64.435,79.166 C64.398,79.286 64.355,79.412 64.302,79.544 L64.337,79.581 C64.600,79.565 64.846,79.557 65.070,79.557 C65.270,79.557 65.488,79.565 65.726,79.581 C65.754,79.462 65.797,79.337 65.854,79.205 L65.834,79.166 ZM76.681,80.476 C76.547,80.469 76.461,80.456 76.423,80.438 C76.384,80.419 76.352,80.389 76.322,80.346 C76.292,80.304 76.234,80.178 76.144,79.969 L74.826,76.899 L74.649,76.899 C74.580,77.094 74.449,77.407 74.258,77.839 L73.541,79.463 C73.414,79.754 73.288,80.024 73.165,80.275 C73.124,80.360 73.086,80.414 73.051,80.436 C73.015,80.457 72.937,80.469 72.815,80.473 L72.737,80.476 L72.737,80.640 C72.926,80.628 73.147,80.622 73.397,80.622 C73.604,80.622 73.791,80.628 73.959,80.640 L73.959,80.476 L73.710,80.447 C73.620,80.437 73.564,80.423 73.542,80.405 C73.521,80.388 73.510,80.359 73.510,80.319 C73.510,80.257 73.568,80.086 73.685,79.807 L73.862,79.388 L75.369,79.388 L75.654,80.113 C75.707,80.246 75.733,80.327 75.733,80.359 C75.733,80.388 75.720,80.412 75.693,80.432 C75.676,80.444 75.622,80.453 75.529,80.460 L75.271,80.476 L75.271,80.640 C75.589,80.628 75.844,80.622 76.035,80.622 C76.241,80.622 76.456,80.628 76.681,80.640 L76.681,80.476 ZM80.309,80.476 L80.242,80.476 C80.211,80.476 80.180,80.468 80.151,80.452 C80.121,80.437 80.062,80.373 79.973,80.262 L79.473,79.613 C79.222,79.287 79.011,79.002 78.840,78.757 C79.175,78.687 79.431,78.558 79.607,78.370 C79.783,78.182 79.871,77.966 79.871,77.721 C79.871,77.554 79.832,77.410 79.751,77.290 C79.670,77.170 79.552,77.079 79.397,77.015 C79.240,76.952 79.013,76.920 78.713,76.920 C78.603,76.920 78.424,76.924 78.174,76.933 C77.959,76.942 77.794,76.946 77.678,76.946 C77.508,76.946 77.262,76.940 76.939,76.927 L76.939,77.092 L77.080,77.092 C77.256,77.092 77.361,77.124 77.392,77.188 C77.425,77.253 77.442,77.554 77.442,78.093 L77.442,79.349 C77.442,79.969 77.428,80.313 77.399,80.378 C77.372,80.443 77.283,80.476 77.134,80.476 L76.939,80.476 L76.939,80.640 C77.329,80.628 77.599,80.622 77.749,80.622 C77.938,80.622 78.177,80.628 78.466,80.640 L78.466,80.476 L78.262,80.476 C78.101,80.476 78.005,80.443 77.977,80.375 C77.946,80.308 77.932,79.968 77.932,79.354 L77.932,78.093 C77.932,77.779 77.942,77.483 77.963,77.207 C78.147,77.139 78.330,77.105 78.513,77.105 C78.776,77.105 78.975,77.168 79.114,77.294 C79.253,77.420 79.323,77.595 79.323,77.820 C79.323,78.071 79.240,78.270 79.076,78.420 C78.913,78.569 78.685,78.644 78.395,78.644 C78.346,78.644 78.272,78.640 78.172,78.631 L78.144,78.720 C78.341,78.939 78.526,79.163 78.697,79.393 L79.619,80.640 C79.728,80.628 79.833,80.622 79.932,80.622 C80.040,80.622 80.166,80.628 80.309,80.640 L80.309,80.476 ZM84.197,80.476 C84.118,80.476 84.062,80.471 84.028,80.460 C83.995,80.450 83.961,80.428 83.928,80.395 L83.766,80.241 L81.989,78.585 L82.985,77.668 C83.300,77.379 83.500,77.212 83.587,77.164 C83.673,77.116 83.780,77.092 83.905,77.092 L84.044,77.092 L84.044,76.927 C83.888,76.940 83.743,76.946 83.613,76.946 C83.489,76.946 83.329,76.940 83.140,76.927 L83.140,77.110 L82.399,77.877 C82.164,78.120 81.996,78.288 81.893,78.385 C81.792,78.481 81.669,78.588 81.526,78.705 L81.490,78.705 L81.490,78.000 C81.490,77.619 81.493,77.389 81.501,77.308 C81.509,77.228 81.529,77.175 81.560,77.148 C81.593,77.121 81.667,77.105 81.786,77.100 L81.993,77.092 L81.993,76.927 C81.559,76.940 81.292,76.946 81.189,76.946 C81.046,76.946 80.816,76.940 80.498,76.927 L80.498,77.092 L80.708,77.092 C80.847,77.092 80.931,77.122 80.958,77.182 C80.987,77.242 80.1000,77.511 80.1000,77.989 L80.1000,79.735 C80.1000,80.126 80.987,80.347 80.958,80.399 C80.931,80.450 80.847,80.476 80.708,80.476 L80.498,80.476 L80.498,80.640 C80.761,80.628 81.009,80.622 81.238,80.622 C81.458,80.622 81.709,80.628 81.993,80.640 L81.993,80.476 L81.797,80.476 C81.634,80.476 81.540,80.445 81.513,80.382 C81.498,80.346 81.490,80.133 81.490,79.746 L81.490,78.949 C81.490,78.882 81.508,78.848 81.545,78.848 C81.559,78.848 81.596,78.877 81.656,78.934 L83.451,80.640 C83.585,80.628 83.709,80.622 83.821,80.622 C83.929,80.622 84.054,80.628 84.197,80.640 L84.197,80.476 ZM88.544,76.927 C88.289,76.940 88.080,76.946 87.919,76.946 C87.766,76.946 87.548,76.940 87.268,76.927 L87.268,77.092 L87.464,77.110 C87.639,77.128 87.740,77.170 87.766,77.235 C87.790,77.300 87.802,77.682 87.802,78.384 L87.802,80.058 C87.660,79.905 87.427,79.632 87.107,79.239 L86.215,78.144 C86.051,77.941 85.893,77.741 85.743,77.542 C85.591,77.343 85.429,77.138 85.257,76.927 C85.108,76.940 84.970,76.946 84.845,76.946 C84.728,76.946 84.560,76.940 84.340,76.927 L84.340,77.092 L84.500,77.092 C84.583,77.092 84.646,77.107 84.692,77.137 C84.736,77.166 84.771,77.199 84.794,77.236 C84.818,77.274 84.832,77.343 84.834,77.444 C84.840,77.682 84.842,77.923 84.842,78.167 L84.842,79.463 C84.842,79.792 84.833,80.052 84.814,80.243 C84.805,80.336 84.784,80.398 84.749,80.429 C84.714,80.460 84.640,80.476 84.527,80.476 L84.340,80.476 L84.340,80.640 C84.721,80.628 84.964,80.622 85.071,80.622 C85.223,80.622 85.395,80.628 85.586,80.640 L85.586,80.476 L85.417,80.462 C85.279,80.450 85.196,80.431 85.167,80.404 C85.138,80.377 85.118,80.302 85.105,80.178 C85.090,80.016 85.083,79.730 85.083,79.319 L85.083,77.516 L86.955,79.833 C87.168,80.094 87.369,80.332 87.562,80.546 C87.597,80.585 87.634,80.612 87.672,80.628 C87.710,80.645 87.847,80.671 88.083,80.708 C88.055,80.268 88.042,79.890 88.042,79.573 L88.042,78.396 C88.042,77.706 88.050,77.325 88.065,77.254 C88.090,77.146 88.183,77.092 88.344,77.092 L88.544,77.092 L88.544,76.927 ZM90.310,80.476 L90.138,80.476 C89.978,80.476 89.881,80.441 89.853,80.373 C89.822,80.304 89.807,79.932 89.807,79.255 L89.807,78.355 C89.807,77.878 89.812,77.547 89.820,77.361 C89.825,77.241 89.845,77.166 89.875,77.137 C89.907,77.107 89.984,77.092 90.109,77.092 L90.310,77.092 L90.310,76.927 C90.120,76.940 89.906,76.946 89.671,76.946 C89.390,76.946 89.104,76.940 88.815,76.927 L88.815,77.092 L89.027,77.092 C89.165,77.092 89.249,77.128 89.276,77.199 C89.304,77.270 89.318,77.654 89.318,78.349 L89.318,79.234 C89.318,79.905 89.302,80.280 89.269,80.359 C89.238,80.437 89.141,80.476 88.979,80.476 L88.815,80.476 L88.815,80.640 C89.051,80.628 89.317,80.622 89.611,80.622 C89.863,80.622 90.096,80.628 90.310,80.640 L90.310,80.476 ZM94.364,79.156 C94.244,79.173 94.101,79.182 93.934,79.182 C93.741,79.182 93.446,79.173 93.048,79.156 L93.048,79.320 L93.356,79.346 C93.519,79.360 93.610,79.372 93.629,79.382 C93.646,79.391 93.659,79.412 93.666,79.444 C93.673,79.476 93.676,79.600 93.676,79.814 C93.676,79.980 93.670,80.136 93.660,80.282 C93.332,80.406 93.028,80.468 92.746,80.468 C92.206,80.468 91.779,80.276 91.468,79.894 C91.202,79.571 91.069,79.172 91.069,78.699 C91.069,78.207 91.216,77.811 91.512,77.512 C91.783,77.237 92.173,77.100 92.684,77.100 C92.972,77.100 93.229,77.142 93.453,77.223 C93.676,77.306 93.815,77.376 93.866,77.431 C93.894,77.461 93.908,77.560 93.908,77.731 L93.908,77.904 L94.072,77.904 C94.099,77.573 94.137,77.315 94.182,77.131 L93.961,77.071 C93.689,76.993 93.470,76.941 93.302,76.915 C93.132,76.889 92.947,76.875 92.749,76.875 C92.259,76.875 91.854,76.957 91.535,77.119 C91.215,77.282 90.966,77.510 90.788,77.803 C90.609,78.096 90.518,78.431 90.518,78.806 C90.518,79.169 90.603,79.494 90.769,79.780 C90.936,80.067 91.174,80.290 91.484,80.451 C91.794,80.612 92.154,80.692 92.564,80.692 C92.830,80.692 93.108,80.665 93.399,80.610 C93.690,80.555 93.951,80.482 94.182,80.393 C94.156,80.192 94.143,80.012 94.143,79.853 C94.143,79.701 94.156,79.552 94.182,79.406 L94.364,79.286 L94.364,79.156 ZM98.857,80.476 L98.655,80.476 C98.494,80.476 98.400,80.445 98.369,80.383 C98.339,80.321 98.324,80.024 98.324,79.489 L98.324,78.047 C98.324,77.628 98.328,77.378 98.335,77.300 C98.343,77.220 98.366,77.166 98.403,77.137 C98.440,77.107 98.526,77.092 98.659,77.092 L98.857,77.092 L98.857,76.927 C98.580,76.940 98.313,76.946 98.056,76.946 C97.817,76.946 97.566,76.940 97.299,76.927 L97.299,77.092 L97.487,77.092 C97.611,77.092 97.691,77.108 97.732,77.139 C97.771,77.171 97.796,77.222 97.802,77.293 C97.824,77.496 97.834,77.745 97.834,78.043 L97.834,78.553 C97.581,78.566 97.252,78.571 96.847,78.571 C96.369,78.571 95.975,78.566 95.666,78.553 L95.666,77.957 C95.666,77.588 95.673,77.355 95.687,77.259 C95.696,77.200 95.719,77.157 95.758,77.131 C95.796,77.105 95.896,77.092 96.056,77.092 L96.170,77.092 L96.170,76.927 C95.933,76.940 95.690,76.946 95.443,76.946 C95.196,76.946 94.930,76.940 94.643,76.927 L94.643,77.092 L94.835,77.092 C94.995,77.092 95.092,77.123 95.125,77.185 C95.159,77.247 95.177,77.505 95.177,77.961 L95.177,79.534 C95.177,80.038 95.160,80.321 95.127,80.383 C95.094,80.445 94.986,80.476 94.804,80.476 L94.643,80.476 L94.643,80.640 C95.021,80.628 95.313,80.622 95.516,80.622 C95.725,80.622 95.944,80.628 96.170,80.640 L96.170,80.476 L95.992,80.476 C95.894,80.476 95.824,80.462 95.780,80.437 C95.738,80.410 95.713,80.385 95.706,80.359 C95.699,80.334 95.690,80.203 95.680,79.966 C95.670,79.797 95.666,79.650 95.666,79.525 L95.666,78.796 C95.945,78.784 96.354,78.777 96.896,78.777 C97.277,78.777 97.589,78.784 97.834,78.796 L97.834,79.475 C97.834,79.818 97.824,80.080 97.805,80.259 C97.797,80.342 97.773,80.399 97.734,80.430 C97.697,80.460 97.611,80.476 97.479,80.476 L97.299,80.476 L97.299,80.640 C97.552,80.628 97.824,80.622 98.115,80.622 C98.371,80.622 98.617,80.628 98.857,80.640 L98.857,80.476 ZM100.708,76.946 C100.543,76.946 99.991,76.940 99.054,76.927 C99.074,77.163 99.085,77.343 99.085,77.468 L99.079,77.778 L99.243,77.778 L99.279,77.428 C99.293,77.293 99.323,77.215 99.365,77.195 C99.408,77.175 99.644,77.165 100.073,77.165 L100.337,77.165 C100.349,77.410 100.356,77.680 100.356,77.974 L100.356,79.463 C100.356,79.785 100.347,80.049 100.330,80.251 C100.321,80.340 100.299,80.399 100.264,80.430 C100.229,80.460 100.154,80.476 100.040,80.476 L99.821,80.476 L99.821,80.640 C100.123,80.628 100.383,80.622 100.598,80.622 C100.812,80.622 101.072,80.628 101.380,80.640 L101.380,80.476 L101.185,80.476 C101.013,80.476 100.915,80.448 100.886,80.391 C100.859,80.334 100.845,80.030 100.845,79.476 L100.845,77.989 C100.845,77.701 100.855,77.426 100.874,77.165 L101.077,77.165 C101.320,77.165 101.537,77.172 101.728,77.186 C101.795,77.191 101.837,77.205 101.856,77.227 C101.875,77.248 101.889,77.318 101.900,77.436 L101.926,77.778 L102.090,77.778 C102.096,77.505 102.114,77.222 102.148,76.927 L100.708,76.946 ZM104.847,78.960 C104.773,78.832 104.671,78.740 104.545,78.683 C104.420,78.625 104.178,78.579 103.820,78.544 C103.463,78.510 103.228,78.472 103.118,78.427 C103.007,78.383 102.920,78.311 102.855,78.210 C102.790,78.111 102.757,77.992 102.757,77.853 C102.757,77.632 102.836,77.452 102.996,77.311 C103.155,77.170 103.373,77.100 103.650,77.100 C103.821,77.100 103.982,77.128 104.137,77.182 C104.290,77.236 104.385,77.289 104.422,77.337 C104.458,77.386 104.477,77.478 104.477,77.614 L104.477,77.822 L104.656,77.822 C104.660,77.523 104.686,77.283 104.734,77.103 C104.560,77.025 104.384,76.969 104.210,76.932 C104.035,76.894 103.862,76.875 103.687,76.875 C103.255,76.875 102.916,76.983 102.672,77.199 C102.427,77.414 102.304,77.692 102.304,78.031 C102.304,78.231 102.344,78.398 102.424,78.533 C102.503,78.668 102.614,78.767 102.754,78.829 C102.896,78.892 103.162,78.939 103.554,78.970 C103.850,78.995 104.052,79.030 104.162,79.077 C104.271,79.124 104.356,79.196 104.417,79.293 C104.477,79.389 104.508,79.507 104.508,79.646 C104.508,79.885 104.419,80.081 104.240,80.235 C104.060,80.391 103.808,80.468 103.479,80.468 C103.326,80.468 103.184,80.450 103.051,80.414 C102.920,80.379 102.805,80.327 102.710,80.259 C102.647,80.214 102.606,80.171 102.588,80.131 C102.571,80.091 102.562,79.987 102.562,79.818 L102.562,79.688 L102.384,79.688 C102.386,80.015 102.372,80.283 102.340,80.491 C102.513,80.558 102.683,80.607 102.853,80.641 C103.022,80.675 103.189,80.692 103.357,80.692 C103.843,80.692 104.233,80.566 104.523,80.313 C104.815,80.061 104.961,79.760 104.961,79.410 C104.961,79.237 104.924,79.086 104.847,78.960 ZM113.347,79.166 C112.975,79.178 112.720,79.184 112.581,79.184 C112.413,79.184 112.202,79.178 111.948,79.166 C111.911,79.286 111.867,79.412 111.816,79.544 L111.850,79.581 C112.114,79.565 112.359,79.557 112.583,79.557 C112.783,79.557 113.002,79.565 113.240,79.581 C113.267,79.462 113.310,79.337 113.367,79.205 L113.347,79.166 ZM74.615,77.607 L75.271,79.174 L73.959,79.174 L74.615,77.607 ZM136.529,36.897 C137.101,37.210 137.697,37.485 138.239,37.844 C138.732,38.171 139.258,38.438 139.757,38.753 C139.986,38.897 140.199,39.069 140.416,39.232 C140.610,39.379 140.787,39.551 140.993,39.678 C141.149,39.775 141.283,39.884 141.394,40.026 C141.418,40.059 141.444,40.100 141.479,40.114 C141.762,40.226 141.910,40.488 142.114,40.687 C142.231,40.802 142.348,40.921 142.468,41.032 C142.568,41.125 142.665,41.210 142.729,41.342 C142.811,41.510 143.032,41.580 143.084,41.783 C143.441,42.216 143.723,42.695 143.946,43.210 C144.188,43.766 144.368,44.335 144.434,44.939 C144.453,45.116 144.494,45.291 144.499,45.467 C144.517,45.976 144.421,46.471 144.328,46.971 C144.214,47.569 143.932,48.080 143.598,48.570 C143.514,48.694 143.413,48.811 143.309,48.919 C143.147,49.086 142.987,49.263 142.742,49.312 C142.392,49.578 141.962,49.621 141.559,49.736 C141.482,49.760 141.396,49.767 141.314,49.760 C140.926,49.728 140.565,49.606 140.237,49.393 C140.012,49.245 139.880,49.015 139.772,48.779 C139.665,48.543 139.583,48.294 139.506,48.046 C139.435,47.824 139.386,47.596 139.328,47.370 C139.309,47.291 139.295,47.210 139.270,47.130 C139.102,46.578 138.930,46.026 138.763,45.473 C138.683,45.211 138.567,44.957 138.576,44.673 C138.577,44.634 138.558,44.593 138.548,44.554 C138.171,43.316 137.797,42.079 137.419,40.841 C137.355,40.631 137.276,40.425 137.208,40.216 C137.143,40.006 137.088,39.794 137.025,39.583 C136.982,39.439 136.935,39.296 136.892,39.152 C136.820,38.915 136.742,38.680 136.688,38.441 C136.648,38.265 136.586,38.102 136.519,37.935 C136.367,37.555 136.243,37.166 136.110,36.778 C136.103,36.758 136.124,36.728 136.140,36.679 C136.272,36.753 136.400,36.827 136.529,36.897 Z" />
</svg>